<svg width="16" height="16" viewBox="0 0 16 16" fill="none" xmlns="http://www.w3.org/2000/svg">
<rect width="16" height="16" rx="2" fill="#C8A2D6"/>
<path d="M3.496 12V5.081L4.431 5.983H2.066V4.3H5.674V12H3.496ZM9.52701 12.154C8.99901 12.154 8.46734 12.088 7.93201 11.956C7.39667 11.824 6.93467 11.637 6.54601 11.395L7.32701 9.756C7.64234 9.96133 7.98334 10.119 8.35001 10.229C8.72401 10.339 9.09434 10.394 9.46101 10.394C9.82767 10.394 10.1247 10.3243 10.352 10.185C10.5793 10.0383 10.693 9.83667 10.693 9.58C10.693 9.426 10.649 9.29033 10.561 9.173C10.473 9.04833 10.3227 8.95667 10.11 8.898C9.89734 8.832 9.59301 8.799 9.19701 8.799H7.10701L7.49201 4.3H12.398V5.983H8.26201L9.37301 5.026L9.12001 8.062L8.00901 7.105H9.71401C10.4767 7.105 11.089 7.215 11.551 7.435C12.013 7.64767 12.3503 7.93733 12.563 8.304C12.7757 8.66333 12.882 9.07033 12.882 9.525C12.882 9.97967 12.761 10.4087 12.519 10.812C12.2843 11.208 11.9213 11.5307 11.43 11.78C10.9387 12.0293 10.3043 12.154 9.52701 12.154Z" fill="white"/>
</svg>
