<svg width="42" height="42" viewBox="0 0 42 42" fill="none" xmlns="http://www.w3.org/2000/svg">
<path d="M19.25 28L19.25 8.75C19.25 8.28587 19.4344 7.84075 19.7626 7.51256C20.0908 7.18437 20.5359 7 21 7C21.4641 7 21.9092 7.18437 22.2374 7.51256C22.5656 7.84075 22.75 8.28587 22.75 8.75L22.75 28H24.5C24.9641 28 25.4092 28.1844 25.7374 28.5126C26.0656 28.8408 26.25 29.2859 26.25 29.75C26.25 30.2141 26.0656 30.6592 25.7374 30.9874C25.4092 31.3156 24.9641 31.5 24.5 31.5H22.75V33.25C22.75 33.7141 22.5656 34.1592 22.2374 34.4874C21.9092 34.8156 21.4641 35 21 35C20.5359 35 20.0908 34.8156 19.7626 34.4874C19.4344 34.1592 19.25 33.7141 19.25 33.25V31.5H17.5C17.0359 31.5 16.5908 31.3156 16.2626 30.9874C15.9344 30.6592 15.75 30.2141 15.75 29.75C15.75 29.2859 15.9344 28.8408 16.2626 28.5126C16.5908 28.1844 17.0359 28 17.5 28H19.25ZM31.5 10.5V8.75C31.5 8.28587 31.6844 7.84075 32.0126 7.51256C32.3408 7.18437 32.7859 7 33.25 7C33.7141 7 34.1592 7.18437 34.4874 7.51256C34.8156 7.84075 35 8.28587 35 8.75V10.5H36.75C37.2141 10.5 37.6592 10.6844 37.9874 11.0126C38.3156 11.3408 38.5 11.7859 38.5 12.25C38.5 12.7141 38.3156 13.1592 37.9874 13.4874C37.6592 13.8156 37.2141 14 36.75 14H35V33.25C35 33.7141 34.8156 34.1592 34.4874 34.4874C34.1592 34.8156 33.7141 35 33.25 35C32.7859 35 32.3408 34.8156 32.0126 34.4874C31.6844 34.1592 31.5 33.7141 31.5 33.25L31.5 14H29.75C29.2859 14 28.8408 13.8156 28.5126 13.4874C28.1844 13.1592 28 12.7141 28 12.25C28 11.7859 28.1844 11.3408 28.5126 11.0126C28.8408 10.6844 29.2859 10.5 29.75 10.5H31.5ZM10.5 15.75H12.25C12.7141 15.75 13.1592 15.9344 13.4874 16.2626C13.8156 16.5908 14 17.0359 14 17.5C14 17.9641 13.8156 18.4092 13.4874 18.7374C13.1592 19.0656 12.7141 19.25 12.25 19.25H10.5L10.5 33.25C10.5 33.7141 10.3156 34.1592 9.98744 34.4874C9.65925 34.8156 9.21413 35 8.75 35C8.28587 35 7.84075 34.8156 7.51256 34.4874C7.18437 34.1592 7 33.7141 7 33.25L7 19.25H5.25C4.78587 19.25 4.34075 19.0656 4.01256 18.7374C3.68437 18.4092 3.5 17.9641 3.5 17.5C3.5 17.0359 3.68437 16.5908 4.01256 16.2626C4.34075 15.9344 4.78587 15.75 5.25 15.75H7L7 8.75C7 8.28587 7.18437 7.84075 7.51256 7.51256C7.84075 7.18437 8.28587 7 8.75 7C9.21413 7 9.65925 7.18437 9.98744 7.51256C10.3156 7.84075 10.5 8.28587 10.5 8.75L10.5 15.75Z" fill="white"/>
</svg>
