<svg width="41" height="42" viewBox="0 0 41 42" fill="none" xmlns="http://www.w3.org/2000/svg">
<path d="M27.3334 14.875C29.6106 17.9865 29.6106 24.0135 27.3334 27.125M32.4584 8.74999C39.2712 15.414 39.3122 26.6297 32.4584 33.25M3.41675 26.1782V15.82C3.41675 14.8155 4.18208 14 5.12508 14H11.2512C11.4772 13.9992 11.7008 13.9515 11.9084 13.8597C12.116 13.768 12.3032 13.6341 12.459 13.4662L17.584 7.53724C18.6602 6.38924 20.5001 7.20299 20.5001 8.82524V33.1747C20.5001 34.8092 18.638 35.616 17.5686 34.4452L12.4607 28.5495C12.3045 28.3768 12.1153 28.2389 11.9049 28.1444C11.6945 28.0498 11.4673 28.0007 11.2375 28H5.12508C4.18208 28 3.41675 27.1845 3.41675 26.1782Z" stroke="white" stroke-width="3" stroke-linecap="round" stroke-linejoin="round"/>
</svg>
